# Wavefront OBJ file automatically generated by Tiled2Unity

# Vertices (Count = 300)
v -816 -192 0
v -864 -192 0
v -864 -144 0
v -816 -144 0
v -912 -192 0
v -912 -144 0
v -816 -240 0
v -864 -240 0
v -912 -240 0
v -960 -240 0
v -960 -192 0
v -1008 -240 0
v -1008 -192 0
v -960 -288 0
v -1008 -288 0
v -96 -672 0
v -144 -672 0
v -144 -624 0
v -96 -624 0
v -192 -672 0
v -192 -624 0
v -240 -672 0
v -240 -624 0
v -288 -672 0
v -288 -624 0
v -336 -672 0
v -336 -624 0
v -384 -672 0
v -384 -624 0
v -432 -672 0
v -432 -624 0
v -480 -672 0
v -480 -624 0
v -528 -672 0
v -528 -624 0
v -576 -672 0
v -576 -624 0
v -624 -672 0
v -624 -624 0
v -672 -672 0
v -672 -624 0
v -720 -672 0
v -720 -624 0
v -768 -672 0
v -768 -624 0
v -96 -720 0
v -144 -720 0
v -192 -720 0
v -240 -720 0
v -288 -720 0
v -336 -720 0
v -384 -720 0
v -432 -720 0
v -480 -720 0
v -528 -720 0
v -576 -720 0
v -624 -720 0
v -672 -720 0
v -720 -720 0
v -768 -720 0
v -96 -768 0
v -144 -768 0
v -192 -768 0
v -240 -768 0
v -288 -768 0
v -336 -768 0
v -384 -768 0
v -432 -768 0
v -480 -768 0
v -528 -768 0
v -576 -768 0
v -624 -768 0
v -672 -768 0
v -720 -768 0
v -768 -768 0
v -768 -576 0
v -816 -576 0
v -816 -528 0
v -768 -528 0
v -816 -624 0
v -816 -672 0
v -816 -720 0
v -912 -96 0
v -960 -96 0
v -960 -48 0
v -912 -48 0
v -1008 -96 0
v -1008 -48 0
v -1056 -96 0
v -1056 -48 0
v -960 -144 0
v -1008 -144 0
v -1056 -144 0
v -96 -192 0
v -144 -192 0
v -144 -144 0
v -96 -144 0
v -192 -192 0
v -192 -144 0
v -240 -192 0
v -240 -144 0
v -528 -192 0
v -576 -192 0
v -576 -144 0
v -528 -144 0
v -624 -192 0
v -624 -144 0
v -720 -192 0
v -768 -192 0
v -768 -144 0
v -720 -144 0
v -1056 -192 0
v -1104 -192 0
v -1104 -144 0
v -1152 -192 0
v -1152 -144 0
v -96 -240 0
v -144 -240 0
v -192 -240 0
v -240 -240 0
v -528 -240 0
v -576 -240 0
v -624 -240 0
v -720 -240 0
v -768 -240 0
v -1056 -240 0
v -1104 -240 0
v -1152 -240 0
v -96 -288 0
v -144 -288 0
v -192 -288 0
v -240 -288 0
v -528 -288 0
v -576 -288 0
v -624 -288 0
v -720 -288 0
v -768 -288 0
v -816 -288 0
v -864 -288 0
v -912 -288 0
v -1056 -288 0
v -1104 -288 0
v -1152 -288 0
v -384 -336 0
v -432 -336 0
v -432 -288 0
v -384 -288 0
v -480 -336 0
v -480 -288 0
v -720 -336 0
v -768 -336 0
v -816 -336 0
v -864 -336 0
v -384 -384 0
v -432 -384 0
v -480 -384 0
v -720 -384 0
v -768 -384 0
v -816 -384 0
v -864 -384 0
v -384 -432 0
v -432 -432 0
v -480 -432 0
v -720 -432 0
v -768 -432 0
v -816 -432 0
v -864 -432 0
v -192 -480 0
v -240 -480 0
v -240 -432 0
v -192 -432 0
v -288 -480 0
v -288 -432 0
v -336 -480 0
v -336 -432 0
v -528 -480 0
v -576 -480 0
v -576 -432 0
v -528 -432 0
v -624 -480 0
v -624 -432 0
v -672 -480 0
v -672 -432 0
v -720 -480 0
v -768 -480 0
v -816 -480 0
v -864 -480 0
v -912 -480 0
v -912 -432 0
v -144 -528 0
v -192 -528 0
v -144 -480 0
v -240 -528 0
v -288 -528 0
v -336 -528 0
v -528 -528 0
v -576 -528 0
v -624 -528 0
v -672 -528 0
v -720 -528 0
v -864 -528 0
v -912 -528 0
v -144 -576 0
v -192 -576 0
v -240 -576 0
v -288 -576 0
v -528 -576 0
v -576 -576 0
v -624 -576 0
v -672 -576 0
v -720 -576 0
v -864 -576 0
v -912 -576 0
v 0 -672 0
v -48 -672 0
v -48 -624 0
v 0 -624 0
v -864 -672 0
v -864 -624 0
v -912 -672 0
v -912 -624 0
v -960 -672 0
v -960 -624 0
v -1008 -672 0
v -1008 -624 0
v -1056 -672 0
v -1056 -624 0
v -1104 -672 0
v -1104 -624 0
v -1152 -672 0
v -1152 -624 0
v 0 -720 0
v -48 -720 0
v -864 -720 0
v -912 -720 0
v -960 -720 0
v -1008 -720 0
v -1056 -720 0
v -1104 -720 0
v -1152 -720 0
v 0 -768 0
v -48 -768 0
v -816 -768 0
v -864 -768 0
v -912 -768 0
v -960 -768 0
v -1008 -768 0
v -1056 -768 0
v -1104 -768 0
v -1152 -768 0
v -192 -96 0
v -144 -96 0
v -576 -96 0
v -528 -96 0
v -96 -336 0
v -144 -336 0
v -192 -336 0
v -240 -336 0
v -1056 -336 0
v -1104 -336 0
v -1152 -336 0
v -96 -384 0
v -144 -384 0
v -1056 -384 0
v -1104 -384 0
v -288 -384 0
v -240 -384 0
v -912 -384 0
v -336 -576 0
v -1104 -576 0
v -1056 -576 0
v -960 0 0
v -912 0 0
v -1008 0 0
v -1056 0 0
v -96 -96 0
v -240 -96 0
v -624 -96 0
v -768 -96 0
v -720 -96 0
v -816 -96 0
v -864 -96 0
v -1104 -96 0
v -1152 -96 0
v -432 -240 0
v -384 -240 0
v -480 -240 0
v -192 -384 0
v -336 -384 0
v -576 -384 0
v -528 -384 0
v -624 -384 0
v -672 -384 0
v -144 -432 0
v -48 -576 0
v 0 -576 0
v -96 -576 0
v -960 -576 0
v -1008 -576 0
v -1152 -576 0

# Texture Coorindates (Count = 159)
vt 0.1667887 0.7501221
vt 0.2498779 0.7501221
vt 0.2498779 0.8332112
vt 0.1667887 0.8332112
vt 0.2501221 0.7501221
vt 0.3332113 0.7501221
vt 0.3332113 0.8332112
vt 0.2501221 0.8332112
vt 0.1667887 0.6667888
vt 0.2498779 0.6667888
vt 0.2498779 0.7498779
vt 0.1667887 0.7498779
vt 0.2501221 0.6667888
vt 0.3332113 0.6667888
vt 0.3332113 0.7498779
vt 0.2501221 0.7498779
vt 0.2501221 0.5834554
vt 0.3332113 0.5834554
vt 0.3332113 0.6665446
vt 0.2501221 0.6665446
vt 0.0001220703 0.6667888
vt 0.9998779 0.6667888
vt 0.9998779 0.9998779
vt 0.0001220703 0.9998779
vt 0.0001220703 0.3334554
vt 0.9998779 0.3334554
vt 0.9998779 0.6665446
vt 0.0001220703 0.6665446
vt 0.0001220703 0.0001220703
vt 0.9998779 0.0001220703
vt 0.9998779 0.3332113
vt 0.0001220703 0.3332113
vt 0.5001221 0.5834554
vt 0.5832112 0.5834554
vt 0.5832112 0.6665446
vt 0.5001221 0.6665446
vt 0.1429792 0.8751221
vt 0.2855922 0.8751221
vt 0.2855922 0.9998779
vt 0.1429792 0.9998779
vt 0.2858364 0.8751221
vt 0.4284494 0.8751221
vt 0.4284494 0.9998779
vt 0.2858364 0.9998779
vt 0.5715507 0.8751221
vt 0.7141637 0.8751221
vt 0.7141637 0.9998779
vt 0.5715507 0.9998779
vt 0.1429792 0.7501221
vt 0.2855922 0.7501221
vt 0.2855922 0.8748779
vt 0.1429792 0.8748779
vt 0.4286935 0.7501221
vt 0.5713065 0.7501221
vt 0.5713065 0.8748779
vt 0.4286935 0.8748779
vt 0.5715507 0.6251221
vt 0.7141637 0.6251221
vt 0.7141637 0.7498779
vt 0.5715507 0.7498779
vt 0.8572649 0.7501221
vt 0.9998779 0.7501221
vt 0.9998779 0.8748779
vt 0.8572649 0.8748779
vt 0.2858364 0.6251221
vt 0.4284494 0.6251221
vt 0.4284494 0.7498779
vt 0.2858364 0.7498779
vt 0.7144078 0.7501221
vt 0.8570208 0.7501221
vt 0.8570208 0.8748779
vt 0.7144078 0.8748779
vt 0.4286935 0.8751221
vt 0.5713065 0.8751221
vt 0.5713065 0.9998779
vt 0.4286935 0.9998779
vt 0.5715507 0.7501221
vt 0.7141637 0.7501221
vt 0.7141637 0.8748779
vt 0.5715507 0.8748779
vt 0.1429792 0.6251221
vt 0.2855922 0.6251221
vt 0.2855922 0.7498779
vt 0.1429792 0.7498779
vt 0.4286935 0.6251221
vt 0.5713065 0.6251221
vt 0.5713065 0.7498779
vt 0.4286935 0.7498779
vt 0.1429792 0.5001221
vt 0.2855922 0.5001221
vt 0.2855922 0.6248779
vt 0.1429792 0.6248779
vt 0.2858364 0.5001221
vt 0.4284494 0.5001221
vt 0.4284494 0.6248779
vt 0.2858364 0.6248779
vt 0.5715507 0.5001221
vt 0.7141637 0.5001221
vt 0.7141637 0.6248779
vt 0.5715507 0.6248779
vt 0.7144078 0.8751221
vt 0.8570208 0.8751221
vt 0.8570208 0.9998779
vt 0.7144078 0.9998779
vt 0.4286935 0.5001221
vt 0.5713065 0.5001221
vt 0.5713065 0.6248779
vt 0.4286935 0.6248779
vt 0.2858364 0.7501221
vt 0.4284494 0.7501221
vt 0.4284494 0.8748779
vt 0.2858364 0.8748779
vt 0.5001221 0.7501221
vt 0.7498779 0.7501221
vt 0.7498779 0.9998779
vt 0.5001221 0.9998779
vt 0.4998779 0.7501221
vt 0.4998779 0.9998779
vt 0.2501221 0.9998779
vt 0.0001220703 0.5001221
vt 0.2498779 0.5001221
vt 0.0001220703 0.7498779
vt 0.7501221 0.5001221
vt 0.9998779 0.5001221
vt 0.9998779 0.7498779
vt 0.7501221 0.7498779
vt 0.2501221 0.5001221
vt 0.4998779 0.5001221
vt 0.4998779 0.7498779
vt 0.2501221 0.2501221
vt 0.4998779 0.2501221
vt 0.4998779 0.4998779
vt 0.2501221 0.4998779
vt 0.0001220703 0.7501221
vt 0.2498779 0.9998779
vt 0.5001221 0.2501221
vt 0.7498779 0.2501221
vt 0.7498779 0.4998779
vt 0.5001221 0.4998779
vt 0.5001221 0.5001221
vt 0.7498779 0.5001221
vt 0.7498779 0.7498779
vt 0.5001221 0.7498779
vt 0.7501221 0.2501221
vt 0.9998779 0.2501221
vt 0.9998779 0.4998779
vt 0.7501221 0.4998779
vt 0.08345541 0.8334554
vt 0.1665446 0.8334554
vt 0.1665446 0.9165446
vt 0.08345541 0.9165446
vt 0.1667887 0.8334554
vt 0.2498779 0.8334554
vt 0.2498779 0.9165446
vt 0.1667887 0.9165446
vt 0.3334554 0.8334554
vt 0.4165446 0.8334554
vt 0.4165446 0.9165446
vt 0.3334554 0.9165446

# Normal
vn 0 0 -1

# Groups (Count = 7)
g mesh_[00]_[01]
f  1/1/1  2/2/1  3/3/1  4/4/1 
f  2/5/1  5/6/1  6/7/1  3/8/1 
f  7/9/1  8/10/1  2/11/1  1/12/1 
f  8/13/1  9/14/1  5/15/1  2/16/1 
f  9/1/1  10/2/1  11/3/1  5/4/1 
f  10/5/1  12/6/1  13/7/1  11/8/1 
f  14/17/1  15/18/1  12/19/1  10/20/1 
g mesh_[01]_[02]
f  16/21/1  17/22/1  18/23/1  19/24/1 
f  17/21/1  20/22/1  21/23/1  18/24/1 
f  20/21/1  22/22/1  23/23/1  21/24/1 
f  22/21/1  24/22/1  25/23/1  23/24/1 
f  24/21/1  26/22/1  27/23/1  25/24/1 
f  26/21/1  28/22/1  29/23/1  27/24/1 
f  28/21/1  30/22/1  31/23/1  29/24/1 
f  30/21/1  32/22/1  33/23/1  31/24/1 
f  32/21/1  34/22/1  35/23/1  33/24/1 
f  34/21/1  36/22/1  37/23/1  35/24/1 
f  36/21/1  38/22/1  39/23/1  37/24/1 
f  38/21/1  40/22/1  41/23/1  39/24/1 
f  40/21/1  42/22/1  43/23/1  41/24/1 
f  42/21/1  44/22/1  45/23/1  43/24/1 
f  46/25/1  47/26/1  17/27/1  16/28/1 
f  47/25/1  48/26/1  20/27/1  17/28/1 
f  48/25/1  49/26/1  22/27/1  20/28/1 
f  49/25/1  50/26/1  24/27/1  22/28/1 
f  50/25/1  51/26/1  26/27/1  24/28/1 
f  51/25/1  52/26/1  28/27/1  26/28/1 
f  52/25/1  53/26/1  30/27/1  28/28/1 
f  53/25/1  54/26/1  32/27/1  30/28/1 
f  54/25/1  55/26/1  34/27/1  32/28/1 
f  55/25/1  56/26/1  36/27/1  34/28/1 
f  56/25/1  57/26/1  38/27/1  36/28/1 
f  57/25/1  58/26/1  40/27/1  38/28/1 
f  58/25/1  59/26/1  42/27/1  40/28/1 
f  59/25/1  60/26/1  44/27/1  42/28/1 
f  61/29/1  62/30/1  47/31/1  46/32/1 
f  62/29/1  63/30/1  48/31/1  47/32/1 
f  63/29/1  64/30/1  49/31/1  48/32/1 
f  64/29/1  65/30/1  50/31/1  49/32/1 
f  65/29/1  66/30/1  51/31/1  50/32/1 
f  66/29/1  67/30/1  52/31/1  51/32/1 
f  67/29/1  68/30/1  53/31/1  52/32/1 
f  68/29/1  69/30/1  54/31/1  53/32/1 
f  69/29/1  70/30/1  55/31/1  54/32/1 
f  70/29/1  71/30/1  56/31/1  55/32/1 
f  71/29/1  72/30/1  57/31/1  56/32/1 
f  72/29/1  73/30/1  58/31/1  57/32/1 
f  73/29/1  74/30/1  59/31/1  58/32/1 
f  74/29/1  75/30/1  60/31/1  59/32/1 
g mesh_[02]_[01]
f  76/33/1  77/34/1  78/35/1  79/36/1 
f  45/33/1  80/34/1  77/35/1  76/36/1 
f  44/33/1  81/34/1  80/35/1  45/36/1 
f  60/33/1  82/34/1  81/35/1  44/36/1 
g mesh_[03]_[00]
f  83/37/1  84/38/1  85/39/1  86/40/1 
f  84/41/1  87/42/1  88/43/1  85/44/1 
f  87/45/1  89/46/1  90/47/1  88/48/1 
f  6/49/1  91/50/1  84/51/1  83/52/1 
f  91/53/1  92/54/1  87/55/1  84/56/1 
f  92/57/1  93/58/1  89/59/1  87/60/1 
f  94/37/1  95/38/1  96/39/1  97/40/1 
f  95/41/1  98/42/1  99/43/1  96/44/1 
f  98/45/1  100/46/1  101/47/1  99/48/1 
f  102/37/1  103/38/1  104/39/1  105/40/1 
f  103/45/1  106/46/1  107/47/1  104/48/1 
f  108/37/1  109/38/1  110/39/1  111/40/1 
f  109/41/1  1/42/1  4/43/1  110/44/1 
f  2/41/1  5/42/1  6/43/1  3/44/1 
f  5/61/1  11/62/1  91/63/1  6/64/1 
f  11/65/1  13/66/1  92/67/1  91/68/1 
f  13/69/1  112/70/1  93/71/1  92/72/1 
f  112/73/1  113/74/1  114/75/1  93/76/1 
f  113/45/1  115/46/1  116/47/1  114/48/1 
f  117/49/1  118/50/1  95/51/1  94/52/1 
f  118/53/1  119/54/1  98/55/1  95/56/1 
f  119/77/1  120/78/1  100/79/1  98/80/1 
f  121/49/1  122/50/1  103/51/1  102/52/1 
f  122/77/1  123/78/1  106/79/1  103/80/1 
f  124/81/1  125/82/1  109/83/1  108/84/1 
f  125/65/1  7/66/1  1/67/1  109/68/1 
f  12/85/1  126/86/1  112/87/1  13/88/1 
f  126/65/1  127/66/1  113/67/1  112/68/1 
f  127/57/1  128/58/1  115/59/1  113/60/1 
f  129/89/1  130/90/1  118/91/1  117/92/1 
f  130/93/1  131/94/1  119/95/1  118/96/1 
f  131/97/1  132/98/1  120/99/1  119/100/1 
f  133/89/1  134/90/1  122/91/1  121/92/1 
f  134/97/1  135/98/1  123/99/1  122/100/1 
f  136/49/1  137/50/1  125/51/1  124/52/1 
f  137/65/1  138/66/1  7/67/1  125/68/1 
f  138/101/1  139/102/1  8/103/1  7/104/1 
f  139/93/1  140/94/1  9/95/1  8/96/1 
f  140/93/1  14/94/1  10/95/1  9/96/1 
f  15/105/1  141/106/1  126/107/1  12/108/1 
f  141/93/1  142/94/1  127/95/1  126/96/1 
f  142/97/1  143/98/1  128/99/1  127/100/1 
f  144/37/1  145/38/1  146/39/1  147/40/1 
f  145/45/1  148/46/1  149/47/1  146/48/1 
f  150/81/1  151/82/1  137/83/1  136/84/1 
f  151/85/1  152/86/1  138/87/1  137/88/1 
f  152/77/1  153/78/1  139/79/1  138/80/1 
f  154/49/1  155/50/1  145/51/1  144/52/1 
f  155/57/1  156/58/1  148/59/1  145/60/1 
f  157/81/1  158/82/1  151/83/1  150/84/1 
f  158/53/1  159/54/1  152/55/1  151/56/1 
f  159/77/1  160/78/1  153/79/1  152/80/1 
f  161/89/1  162/90/1  155/91/1  154/92/1 
f  162/97/1  163/98/1  156/99/1  155/100/1 
f  164/81/1  165/82/1  158/83/1  157/84/1 
f  165/85/1  166/86/1  159/87/1  158/88/1 
f  166/57/1  167/58/1  160/59/1  159/60/1 
f  168/37/1  169/38/1  170/39/1  171/40/1 
f  169/41/1  172/42/1  173/43/1  170/44/1 
f  172/45/1  174/46/1  175/47/1  173/48/1 
f  176/37/1  177/38/1  178/39/1  179/40/1 
f  177/73/1  180/74/1  181/75/1  178/76/1 
f  180/45/1  182/46/1  183/47/1  181/48/1 
f  184/81/1  185/82/1  165/83/1  164/84/1 
f  185/109/1  186/110/1  166/111/1  165/112/1 
f  186/69/1  187/70/1  167/71/1  166/72/1 
f  187/45/1  188/46/1  189/47/1  167/48/1 
f  190/37/1  191/38/1  168/39/1  192/40/1 
f  191/61/1  193/62/1  169/63/1  168/64/1 
f  193/101/1  194/102/1  172/103/1  169/104/1 
f  194/97/1  195/98/1  174/99/1  172/100/1 
f  196/49/1  197/50/1  177/51/1  176/52/1 
f  197/53/1  198/54/1  180/55/1  177/56/1 
f  198/57/1  199/58/1  182/59/1  180/60/1 
f  200/49/1  79/50/1  185/51/1  184/52/1 
f  79/85/1  78/86/1  186/87/1  185/88/1 
f  78/109/1  201/110/1  187/111/1  186/112/1 
f  201/77/1  202/78/1  188/79/1  187/80/1 
f  203/89/1  204/90/1  191/91/1  190/92/1 
f  204/105/1  205/106/1  193/107/1  191/108/1 
f  205/97/1  206/98/1  194/99/1  193/100/1 
f  207/89/1  208/90/1  197/91/1  196/92/1 
f  208/93/1  209/94/1  198/95/1  197/96/1 
f  209/97/1  210/98/1  199/99/1  198/100/1 
f  211/89/1  76/90/1  79/91/1  200/92/1 
f  76/105/1  77/106/1  78/107/1  79/108/1 
f  77/105/1  212/106/1  201/107/1  78/108/1 
f  212/97/1  213/98/1  202/99/1  201/100/1 
f  214/73/1  215/74/1  216/75/1  217/76/1 
f  215/41/1  16/42/1  19/43/1  216/44/1 
f  16/45/1  17/46/1  18/47/1  19/48/1 
f  42/37/1  44/38/1  45/39/1  43/40/1 
f  44/41/1  81/42/1  80/43/1  45/44/1 
f  81/73/1  218/74/1  219/75/1  80/76/1 
f  218/73/1  220/74/1  221/75/1  219/76/1 
f  220/73/1  222/74/1  223/75/1  221/76/1 
f  222/73/1  224/74/1  225/75/1  223/76/1 
f  224/73/1  226/74/1  227/75/1  225/76/1 
f  226/41/1  228/42/1  229/43/1  227/44/1 
f  228/41/1  230/42/1  231/43/1  229/44/1 
f  232/109/1  233/110/1  215/111/1  214/112/1 
f  233/53/1  46/54/1  16/55/1  215/56/1 
f  46/77/1  47/78/1  17/79/1  16/80/1 
f  59/49/1  60/50/1  44/51/1  42/52/1 
f  60/65/1  82/66/1  81/67/1  44/68/1 
f  82/65/1  234/66/1  218/67/1  81/68/1 
f  234/65/1  235/66/1  220/67/1  218/68/1 
f  235/85/1  236/86/1  222/87/1  220/88/1 
f  236/53/1  237/54/1  224/55/1  222/56/1 
f  237/109/1  238/110/1  226/111/1  224/112/1 
f  238/53/1  239/54/1  228/55/1  226/56/1 
f  239/53/1  240/54/1  230/55/1  228/56/1 
f  241/109/1  242/110/1  233/111/1  232/112/1 
f  242/65/1  61/66/1  46/67/1  233/68/1 
f  61/57/1  62/58/1  47/59/1  46/60/1 
f  74/81/1  75/82/1  60/83/1  59/84/1 
f  75/65/1  243/66/1  82/67/1  60/68/1 
f  243/109/1  244/110/1  234/111/1  82/112/1 
f  244/85/1  245/86/1  235/87/1  234/88/1 
f  245/85/1  246/86/1  236/87/1  235/88/1 
f  246/53/1  247/54/1  237/55/1  236/56/1 
f  247/65/1  248/66/1  238/67/1  237/68/1 
f  248/85/1  249/86/1  239/87/1  238/88/1 
f  249/101/1  250/102/1  240/103/1  239/104/1 
g mesh_[04]_[03]
f  96/113/1  99/114/1  251/115/1  252/116/1 
f  105/5/1  104/117/1  253/118/1  254/119/1 
f  94/120/1  95/121/1  96/11/1  97/122/1 
f  95/123/1  98/124/1  99/125/1  96/126/1 
f  98/120/1  100/121/1  101/11/1  99/122/1 
f  112/123/1  113/124/1  114/125/1  93/126/1 
f  113/120/1  115/121/1  116/11/1  114/122/1 
f  117/123/1  118/124/1  95/125/1  94/126/1 
f  118/120/1  119/121/1  98/11/1  95/122/1 
f  119/123/1  120/124/1  100/125/1  98/126/1 
f  126/120/1  127/121/1  113/11/1  112/122/1 
f  127/123/1  128/124/1  115/125/1  113/126/1 
f  129/120/1  130/121/1  118/11/1  117/122/1 
f  131/120/1  132/121/1  120/11/1  119/122/1 
f  141/123/1  142/124/1  127/125/1  126/126/1 
f  142/120/1  143/121/1  128/11/1  127/122/1 
f  255/123/1  256/124/1  130/125/1  129/126/1 
f  257/123/1  258/124/1  132/125/1  131/126/1 
f  259/120/1  260/121/1  142/11/1  141/122/1 
f  260/123/1  261/124/1  143/125/1  142/126/1 
f  262/120/1  263/121/1  256/11/1  255/122/1 
f  264/123/1  265/124/1  260/125/1  259/126/1 
f  170/127/1  173/128/1  266/129/1  267/16/1 
f  167/130/1  189/131/1  268/132/1  160/133/1 
f  172/120/1  174/121/1  175/11/1  173/122/1 
f  176/120/1  177/121/1  178/11/1  179/122/1 
f  177/123/1  180/124/1  181/125/1  178/126/1 
f  194/123/1  195/124/1  174/125/1  172/126/1 
f  196/123/1  197/124/1  177/125/1  176/126/1 
f  197/120/1  198/121/1  180/11/1  177/122/1 
f  206/120/1  269/121/1  195/11/1  194/122/1 
f  207/120/1  208/121/1  197/11/1  196/122/1 
f  208/123/1  209/124/1  198/125/1  197/126/1 
f  25/123/1  27/124/1  269/125/1  206/126/1 
f  35/123/1  37/124/1  208/125/1  207/126/1 
f  227/134/1  229/2/1  270/135/1  271/24/1 
g mesh_[05]_[03]
f  86/136/1  85/137/1  272/138/1  273/139/1 
f  85/140/1  88/141/1  274/142/1  272/143/1 
f  88/144/1  90/145/1  275/146/1  274/147/1 
f  97/136/1  96/137/1  252/138/1  276/139/1 
f  96/140/1  99/141/1  251/142/1  252/143/1 
f  99/144/1  101/145/1  277/146/1  251/147/1 
f  105/136/1  104/137/1  253/138/1  254/139/1 
f  104/144/1  107/145/1  278/146/1  253/147/1 
f  111/136/1  110/137/1  279/138/1  280/139/1 
f  110/140/1  4/141/1  281/142/1  279/143/1 
f  3/140/1  6/141/1  83/142/1  282/143/1 
f  93/140/1  114/141/1  283/142/1  89/143/1 
f  114/144/1  116/145/1  284/146/1  283/147/1 
f  147/136/1  146/137/1  285/138/1  286/139/1 
f  146/144/1  149/145/1  287/146/1  285/147/1 
f  171/136/1  170/137/1  267/138/1  288/139/1 
f  170/140/1  173/141/1  266/142/1  267/143/1 
f  173/144/1  175/145/1  289/146/1  266/147/1 
f  179/136/1  178/137/1  290/138/1  291/139/1 
f  178/140/1  181/141/1  292/142/1  290/143/1 
f  181/144/1  183/145/1  293/146/1  292/147/1 
f  167/144/1  189/145/1  268/146/1  160/147/1 
f  192/136/1  168/137/1  171/138/1  294/139/1 
f  217/140/1  216/141/1  295/142/1  296/143/1 
f  216/140/1  19/141/1  297/142/1  295/143/1 
f  19/144/1  18/145/1  203/146/1  297/147/1 
f  43/136/1  45/137/1  76/138/1  211/139/1 
f  45/140/1  80/141/1  77/142/1  76/143/1 
f  80/140/1  219/141/1  212/142/1  77/143/1 
f  219/140/1  221/141/1  213/142/1  212/143/1 
f  221/140/1  223/141/1  298/142/1  213/143/1 
f  223/140/1  225/141/1  299/142/1  298/143/1 
f  225/140/1  227/141/1  271/142/1  299/143/1 
f  227/140/1  229/141/1  270/142/1  271/143/1 
f  229/140/1  231/141/1  300/142/1  270/143/1 
g mesh_[06]_[01]
f  110/148/1  4/149/1  281/150/1  279/151/1 
f  4/152/1  3/153/1  282/154/1  281/155/1 
f  3/156/1  6/157/1  83/158/1  282/159/1 
