# Wavefront OBJ file automatically generated by Tiled2Unity

# Vertices (Count = 297)
v -336 -432 0
v -384 -432 0
v -384 -384 0
v -336 -384 0
v -432 -432 0
v -432 -384 0
v -480 -432 0
v -480 -384 0
v -336 -480 0
v -384 -480 0
v -432 -480 0
v -480 -480 0
v -384 -528 0
v -432 -528 0
v -768 -336 0
v -816 -336 0
v -816 -288 0
v -768 -288 0
v -768 -384 0
v -816 -384 0
v -768 -432 0
v -816 -432 0
v -336 -144 0
v -384 -144 0
v -384 -96 0
v -336 -96 0
v -432 -144 0
v -432 -96 0
v -480 -144 0
v -480 -96 0
v -528 -144 0
v -528 -96 0
v -576 -144 0
v -576 -96 0
v -96 -192 0
v -144 -192 0
v -144 -144 0
v -96 -144 0
v -192 -192 0
v -192 -144 0
v -336 -192 0
v -384 -192 0
v -432 -192 0
v -480 -192 0
v -528 -192 0
v -576 -192 0
v -672 -192 0
v -720 -192 0
v -720 -144 0
v -672 -144 0
v -768 -192 0
v -768 -144 0
v -816 -192 0
v -816 -144 0
v -96 -240 0
v -144 -240 0
v -192 -240 0
v -672 -240 0
v -720 -240 0
v -768 -240 0
v -816 -240 0
v -864 -240 0
v -864 -192 0
v -912 -240 0
v -912 -192 0
v -96 -288 0
v -144 -288 0
v -192 -288 0
v -240 -288 0
v -240 -240 0
v -672 -288 0
v -720 -288 0
v -864 -288 0
v -912 -288 0
v -96 -336 0
v -144 -336 0
v -192 -336 0
v -240 -336 0
v -672 -336 0
v -720 -336 0
v -864 -336 0
v -912 -336 0
v -240 -432 0
v -288 -432 0
v -288 -384 0
v -240 -384 0
v -528 -432 0
v -528 -384 0
v -576 -432 0
v -576 -384 0
v -624 -432 0
v -624 -384 0
v -672 -432 0
v -672 -384 0
v -720 -432 0
v -720 -384 0
v -864 -432 0
v -864 -384 0
v -912 -432 0
v -912 -384 0
v -960 -432 0
v -960 -384 0
v -1008 -432 0
v -1008 -384 0
v -192 -480 0
v -240 -480 0
v -192 -432 0
v -288 -480 0
v -528 -480 0
v -576 -480 0
v -624 -480 0
v -672 -480 0
v -720 -480 0
v -768 -480 0
v -816 -480 0
v -864 -480 0
v -912 -480 0
v -960 -480 0
v -1008 -480 0
v -1056 -480 0
v -1056 -432 0
v -1104 -480 0
v -1104 -432 0
v -144 -528 0
v -192 -528 0
v -144 -480 0
v -240 -528 0
v -288 -528 0
v -336 -528 0
v -480 -528 0
v -528 -528 0
v -576 -528 0
v -624 -528 0
v -672 -528 0
v -720 -528 0
v -768 -528 0
v -816 -528 0
v -864 -528 0
v -912 -528 0
v -960 -528 0
v -1008 -528 0
v -1056 -528 0
v -1104 -528 0
v -96 -576 0
v -144 -576 0
v -96 -528 0
v -192 -576 0
v -240 -576 0
v -288 -576 0
v -336 -576 0
v -960 -576 0
v -1008 -576 0
v -1056 -576 0
v -1104 -576 0
v -48 -624 0
v -96 -624 0
v -48 -576 0
v -144 -624 0
v -192 -624 0
v -240 -624 0
v -288 -624 0
v -336 -624 0
v 0 -672 0
v -48 -672 0
v 0 -624 0
v -96 -672 0
v -144 -672 0
v -192 -672 0
v -240 -672 0
v -288 -672 0
v -336 -672 0
v -384 -672 0
v -384 -624 0
v -432 -672 0
v -432 -624 0
v -480 -672 0
v -480 -624 0
v -528 -672 0
v -528 -624 0
v -576 -672 0
v -576 -624 0
v -672 -672 0
v -720 -672 0
v -720 -624 0
v -672 -624 0
v -768 -672 0
v -768 -624 0
v -816 -672 0
v -816 -624 0
v -912 -672 0
v -960 -672 0
v -960 -624 0
v -912 -624 0
v -1008 -672 0
v -1008 -624 0
v -1056 -672 0
v -1056 -624 0
v -1104 -672 0
v -1104 -624 0
v -1152 -672 0
v -1152 -624 0
v 0 -720 0
v -48 -720 0
v -96 -720 0
v -144 -720 0
v -192 -720 0
v -240 -720 0
v -288 -720 0
v -336 -720 0
v -384 -720 0
v -432 -720 0
v -480 -720 0
v -528 -720 0
v -576 -720 0
v -672 -720 0
v -720 -720 0
v -768 -720 0
v -816 -720 0
v -912 -720 0
v -960 -720 0
v -1008 -720 0
v -1056 -720 0
v -1104 -720 0
v -1152 -720 0
v 0 -768 0
v -48 -768 0
v -96 -768 0
v -144 -768 0
v -192 -768 0
v -240 -768 0
v -288 -768 0
v -336 -768 0
v -384 -768 0
v -432 -768 0
v -480 -768 0
v -528 -768 0
v -576 -768 0
v -672 -768 0
v -720 -768 0
v -768 -768 0
v -816 -768 0
v -912 -768 0
v -960 -768 0
v -1008 -768 0
v -1056 -768 0
v -1104 -768 0
v -1152 -768 0
v -144 -96 0
v -96 -96 0
v -432 -240 0
v -480 -240 0
v -528 -240 0
v -576 -240 0
v -432 -288 0
v -480 -288 0
v -624 -336 0
v -1056 -384 0
v -384 -576 0
v -384 -48 0
v -336 -48 0
v -432 -48 0
v -480 -48 0
v -528 -48 0
v -576 -48 0
v -192 -96 0
v -720 -96 0
v -672 -96 0
v -768 -96 0
v -816 -96 0
v -864 -144 0
v -912 -144 0
v -240 -192 0
v -288 -336 0
v -336 -336 0
v -528 -336 0
v -480 -336 0
v -576 -336 0
v -960 -336 0
v -1008 -336 0
v -192 -384 0
v -1104 -384 0
v -144 -432 0
v -96 -480 0
v -48 -528 0
v 0 -576 0
v -432 -576 0
v -480 -576 0
v -528 -576 0
v -576 -576 0
v -720 -576 0
v -672 -576 0
v -768 -576 0
v -816 -576 0
v -912 -576 0
v -1152 -576 0
v -384 -336 0
v -432 -336 0

# Texture Coorindates (Count = 175)
vt 0.08345541 0.7501221
vt 0.1665446 0.7501221
vt 0.1665446 0.8332112
vt 0.08345541 0.8332112
vt 0.1667887 0.7501221
vt 0.2498779 0.7501221
vt 0.2498779 0.8332112
vt 0.1667887 0.8332112
vt 0.3334554 0.7501221
vt 0.4165446 0.7501221
vt 0.4165446 0.8332112
vt 0.3334554 0.8332112
vt 0.08345541 0.6667888
vt 0.1665446 0.6667888
vt 0.1665446 0.7498779
vt 0.08345541 0.7498779
vt 0.1667887 0.6667888
vt 0.2498779 0.6667888
vt 0.2498779 0.7498779
vt 0.1667887 0.7498779
vt 0.3334554 0.6667888
vt 0.4165446 0.6667888
vt 0.4165446 0.7498779
vt 0.3334554 0.7498779
vt 0.2501221 0.5834554
vt 0.3332113 0.5834554
vt 0.3332113 0.6665446
vt 0.2501221 0.6665446
vt 0.5001221 0.5834554
vt 0.5832112 0.5834554
vt 0.5832112 0.6665446
vt 0.5001221 0.6665446
vt 0.1429792 0.8751221
vt 0.2855922 0.8751221
vt 0.2855922 0.9998779
vt 0.1429792 0.9998779
vt 0.2858364 0.8751221
vt 0.4284494 0.8751221
vt 0.4284494 0.9998779
vt 0.2858364 0.9998779
vt 0.4286935 0.8751221
vt 0.5713065 0.8751221
vt 0.5713065 0.9998779
vt 0.4286935 0.9998779
vt 0.5715507 0.8751221
vt 0.7141637 0.8751221
vt 0.7141637 0.9998779
vt 0.5715507 0.9998779
vt 0.1429792 0.5001221
vt 0.2855922 0.5001221
vt 0.2855922 0.6248779
vt 0.1429792 0.6248779
vt 0.2858364 0.5001221
vt 0.4284494 0.5001221
vt 0.4284494 0.6248779
vt 0.2858364 0.6248779
vt 0.2858364 0.0001220703
vt 0.4284494 0.0001220703
vt 0.4284494 0.1248779
vt 0.2858364 0.1248779
vt 0.4286935 0.0001220703
vt 0.5713065 0.0001220703
vt 0.5713065 0.1248779
vt 0.4286935 0.1248779
vt 0.5715507 0.0001220703
vt 0.7141637 0.0001220703
vt 0.7141637 0.1248779
vt 0.5715507 0.1248779
vt 0.1429792 0.7501221
vt 0.2855922 0.7501221
vt 0.2855922 0.8748779
vt 0.1429792 0.8748779
vt 0.5715507 0.7501221
vt 0.7141637 0.7501221
vt 0.7141637 0.8748779
vt 0.5715507 0.8748779
vt 0.1429792 0.6251221
vt 0.2855922 0.6251221
vt 0.2855922 0.7498779
vt 0.1429792 0.7498779
vt 0.2858364 0.6251221
vt 0.4284494 0.6251221
vt 0.4284494 0.7498779
vt 0.2858364 0.7498779
vt 0.7144078 0.7501221
vt 0.8570208 0.7501221
vt 0.8570208 0.8748779
vt 0.7144078 0.8748779
vt 0.4286935 0.6251221
vt 0.5713065 0.6251221
vt 0.5713065 0.7498779
vt 0.4286935 0.7498779
vt 0.4286935 0.7501221
vt 0.5713065 0.7501221
vt 0.5713065 0.8748779
vt 0.4286935 0.8748779
vt 0.1429792 0.0001220703
vt 0.2855922 0.0001220703
vt 0.2855922 0.1248779
vt 0.1429792 0.1248779
vt 0.5715507 0.5001221
vt 0.7141637 0.5001221
vt 0.7141637 0.6248779
vt 0.5715507 0.6248779
vt 0.8572649 0.7501221
vt 0.9998779 0.7501221
vt 0.9998779 0.8748779
vt 0.8572649 0.8748779
vt 0.2858364 0.7501221
vt 0.4284494 0.7501221
vt 0.4284494 0.8748779
vt 0.2858364 0.8748779
vt 0.7144078 0.8751221
vt 0.8570208 0.8751221
vt 0.8570208 0.9998779
vt 0.7144078 0.9998779
vt 0.4286935 0.5001221
vt 0.5713065 0.5001221
vt 0.5713065 0.6248779
vt 0.4286935 0.6248779
vt 0.8572649 0.8751221
vt 0.9998779 0.8751221
vt 0.9998779 0.9998779
vt 0.8572649 0.9998779
vt 0.5715507 0.6251221
vt 0.7141637 0.6251221
vt 0.7141637 0.7498779
vt 0.5715507 0.7498779
vt 0.5001221 0.7501221
vt 0.7498779 0.7501221
vt 0.7498779 0.9998779
vt 0.5001221 0.9998779
vt 0.0001220703 0.5001221
vt 0.2498779 0.5001221
vt 0.0001220703 0.7498779
vt 0.7501221 0.5001221
vt 0.9998779 0.5001221
vt 0.9998779 0.7498779
vt 0.7501221 0.7498779
vt 0.2501221 0.5001221
vt 0.4998779 0.5001221
vt 0.4998779 0.7498779
vt 0.2501221 0.7498779
vt 0.2501221 0.2501221
vt 0.4998779 0.2501221
vt 0.4998779 0.4998779
vt 0.2501221 0.4998779
vt 0.2501221 0.7501221
vt 0.4998779 0.7501221
vt 0.4998779 0.9998779
vt 0.2501221 0.9998779
vt 0.5001221 0.2501221
vt 0.7498779 0.2501221
vt 0.7498779 0.4998779
vt 0.5001221 0.4998779
vt 0.5001221 0.5001221
vt 0.7498779 0.5001221
vt 0.7498779 0.7498779
vt 0.5001221 0.7498779
vt 0.7501221 0.2501221
vt 0.9998779 0.2501221
vt 0.9998779 0.4998779
vt 0.7501221 0.4998779
vt 0.08345541 0.8334554
vt 0.1665446 0.8334554
vt 0.1665446 0.9165446
vt 0.08345541 0.9165446
vt 0.1667887 0.8334554
vt 0.2498779 0.8334554
vt 0.2498779 0.9165446
vt 0.1667887 0.9165446
vt 0.3334554 0.8334554
vt 0.4165446 0.8334554
vt 0.4165446 0.9165446
vt 0.3334554 0.9165446

# Normal
vn 0 0 -1

# Groups (Count = 6)
g mesh_[00]_[01]
f  1/1/1  2/2/1  3/3/1  4/4/1 
f  2/5/1  5/6/1  6/7/1  3/8/1 
f  5/9/1  7/10/1  8/11/1  6/12/1 
f  9/13/1  10/14/1  2/15/1  1/16/1 
f  10/17/1  11/18/1  5/19/1  2/20/1 
f  11/21/1  12/22/1  7/23/1  5/24/1 
f  13/25/1  14/26/1  11/27/1  10/28/1 
g mesh_[02]_[01]
f  15/29/1  16/30/1  17/31/1  18/32/1 
f  19/29/1  20/30/1  16/31/1  15/32/1 
f  21/29/1  22/30/1  20/31/1  19/32/1 
g mesh_[03]_[00]
f  23/33/1  24/34/1  25/35/1  26/36/1 
f  24/37/1  27/38/1  28/39/1  25/40/1 
f  27/37/1  29/38/1  30/39/1  28/40/1 
f  29/41/1  31/42/1  32/43/1  30/44/1 
f  31/45/1  33/46/1  34/47/1  32/48/1 
f  35/33/1  36/34/1  37/35/1  38/36/1 
f  36/45/1  39/46/1  40/47/1  37/48/1 
f  41/49/1  42/50/1  24/51/1  23/52/1 
f  42/53/1  43/54/1  27/55/1  24/56/1 
f  43/57/1  44/58/1  29/59/1  27/60/1 
f  44/61/1  45/62/1  31/63/1  29/64/1 
f  45/65/1  46/66/1  33/67/1  31/68/1 
f  47/33/1  48/34/1  49/35/1  50/36/1 
f  48/37/1  51/38/1  52/39/1  49/40/1 
f  51/45/1  53/46/1  54/47/1  52/48/1 
f  55/69/1  56/70/1  36/71/1  35/72/1 
f  56/73/1  57/74/1  39/75/1  36/76/1 
f  58/77/1  59/78/1  48/79/1  47/80/1 
f  59/81/1  60/82/1  51/83/1  48/84/1 
f  60/85/1  61/86/1  53/87/1  51/88/1 
f  61/37/1  62/38/1  63/39/1  53/40/1 
f  62/45/1  64/46/1  65/47/1  63/48/1 
f  66/69/1  67/70/1  56/71/1  55/72/1 
f  67/85/1  68/86/1  57/87/1  56/88/1 
f  68/45/1  69/46/1  70/47/1  57/48/1 
f  71/77/1  72/78/1  59/79/1  58/80/1 
f  72/89/1  18/90/1  60/91/1  59/92/1 
f  18/81/1  17/82/1  61/83/1  60/84/1 
f  17/93/1  73/94/1  62/95/1  61/96/1 
f  73/73/1  74/74/1  64/75/1  62/76/1 
f  75/97/1  76/98/1  67/99/1  66/100/1 
f  76/61/1  77/62/1  68/63/1  67/64/1 
f  77/65/1  78/66/1  69/67/1  68/68/1 
f  79/49/1  80/50/1  72/51/1  71/52/1 
f  80/53/1  15/54/1  18/55/1  72/56/1 
f  15/53/1  16/54/1  17/55/1  18/56/1 
f  16/53/1  81/54/1  73/55/1  17/56/1 
f  81/101/1  82/102/1  74/103/1  73/104/1 
f  83/33/1  84/34/1  85/35/1  86/36/1 
f  84/37/1  1/38/1  4/39/1  85/40/1 
f  1/45/1  2/46/1  3/47/1  4/48/1 
f  5/33/1  7/34/1  8/35/1  6/36/1 
f  7/37/1  87/38/1  88/39/1  8/40/1 
f  87/41/1  89/42/1  90/43/1  88/44/1 
f  89/37/1  91/38/1  92/39/1  90/40/1 
f  91/37/1  93/38/1  94/39/1  92/40/1 
f  93/37/1  95/38/1  96/39/1  94/40/1 
f  95/37/1  21/38/1  19/39/1  96/40/1 
f  21/37/1  22/38/1  20/39/1  19/40/1 
f  22/37/1  97/38/1  98/39/1  20/40/1 
f  97/37/1  99/38/1  100/39/1  98/40/1 
f  99/37/1  101/38/1  102/39/1  100/40/1 
f  101/45/1  103/46/1  104/47/1  102/48/1 
f  105/33/1  106/34/1  83/35/1  107/36/1 
f  106/105/1  108/106/1  84/107/1  83/108/1 
f  108/109/1  9/110/1  1/111/1  84/112/1 
f  9/109/1  10/110/1  2/111/1  1/112/1 
f  11/109/1  12/110/1  7/111/1  5/112/1 
f  12/81/1  109/82/1  87/83/1  7/84/1 
f  109/81/1  110/82/1  89/83/1  87/84/1 
f  110/93/1  111/94/1  91/95/1  89/96/1 
f  111/93/1  112/94/1  93/95/1  91/96/1 
f  112/109/1  113/110/1  95/111/1  93/112/1 
f  113/109/1  114/110/1  21/111/1  95/112/1 
f  114/109/1  115/110/1  22/111/1  21/112/1 
f  115/81/1  116/82/1  97/83/1  22/84/1 
f  116/93/1  117/94/1  99/95/1  97/96/1 
f  117/81/1  118/82/1  101/83/1  99/84/1 
f  118/85/1  119/86/1  103/87/1  101/88/1 
f  119/37/1  120/38/1  121/39/1  103/40/1 
f  120/45/1  122/46/1  123/47/1  121/48/1 
f  124/33/1  125/34/1  105/35/1  126/36/1 
f  125/105/1  127/106/1  106/107/1  105/108/1 
f  127/81/1  128/82/1  108/83/1  106/84/1 
f  128/113/1  129/114/1  9/115/1  108/116/1 
f  129/61/1  13/62/1  10/63/1  9/64/1 
f  14/61/1  130/62/1  12/63/1  11/64/1 
f  130/53/1  131/54/1  109/55/1  12/56/1 
f  131/53/1  132/54/1  110/55/1  109/56/1 
f  132/53/1  133/54/1  111/55/1  110/56/1 
f  133/117/1  134/118/1  112/119/1  111/120/1 
f  134/117/1  135/118/1  113/119/1  112/120/1 
f  135/53/1  136/54/1  114/55/1  113/56/1 
f  136/117/1  137/118/1  115/119/1  114/120/1 
f  137/53/1  138/54/1  116/55/1  115/56/1 
f  138/53/1  139/54/1  117/55/1  116/56/1 
f  139/117/1  140/118/1  118/119/1  117/120/1 
f  140/121/1  141/122/1  119/123/1  118/124/1 
f  141/81/1  142/82/1  120/83/1  119/84/1 
f  142/73/1  143/74/1  122/75/1  120/76/1 
f  144/33/1  145/34/1  124/35/1  146/36/1 
f  145/105/1  147/106/1  125/107/1  124/108/1 
f  147/109/1  148/110/1  127/111/1  125/112/1 
f  148/89/1  149/90/1  128/91/1  127/92/1 
f  149/73/1  150/74/1  129/75/1  128/76/1 
f  151/49/1  152/50/1  141/51/1  140/52/1 
f  152/53/1  153/54/1  142/55/1  141/56/1 
f  153/101/1  154/102/1  143/103/1  142/104/1 
f  155/33/1  156/34/1  144/35/1  157/36/1 
f  156/105/1  158/106/1  145/107/1  144/108/1 
f  158/81/1  159/82/1  147/83/1  145/84/1 
f  159/81/1  160/82/1  148/83/1  147/84/1 
f  160/89/1  161/90/1  149/91/1  148/92/1 
f  161/73/1  162/74/1  150/75/1  149/76/1 
f  163/37/1  164/38/1  155/39/1  165/40/1 
f  164/105/1  166/106/1  156/107/1  155/108/1 
f  166/81/1  167/82/1  158/83/1  156/84/1 
f  167/89/1  168/90/1  159/91/1  158/92/1 
f  168/93/1  169/94/1  160/95/1  159/96/1 
f  169/93/1  170/94/1  161/95/1  160/96/1 
f  170/85/1  171/86/1  162/87/1  161/88/1 
f  171/37/1  172/38/1  173/39/1  162/40/1 
f  172/37/1  174/38/1  175/39/1  173/40/1 
f  174/37/1  176/38/1  177/39/1  175/40/1 
f  176/41/1  178/42/1  179/43/1  177/44/1 
f  178/45/1  180/46/1  181/47/1  179/48/1 
f  182/33/1  183/34/1  184/35/1  185/36/1 
f  183/41/1  186/42/1  187/43/1  184/44/1 
f  186/45/1  188/46/1  189/47/1  187/48/1 
f  190/33/1  191/34/1  192/35/1  193/36/1 
f  191/41/1  194/42/1  195/43/1  192/44/1 
f  194/41/1  196/42/1  197/43/1  195/44/1 
f  196/37/1  198/38/1  199/39/1  197/40/1 
f  198/41/1  200/42/1  201/43/1  199/44/1 
f  202/93/1  203/94/1  164/95/1  163/96/1 
f  203/81/1  204/82/1  166/83/1  164/84/1 
f  204/89/1  205/90/1  167/91/1  166/92/1 
f  205/81/1  206/82/1  168/83/1  167/84/1 
f  206/109/1  207/110/1  169/111/1  168/112/1 
f  207/93/1  208/94/1  170/95/1  169/96/1 
f  208/81/1  209/82/1  171/83/1  170/84/1 
f  209/89/1  210/90/1  172/91/1  171/92/1 
f  210/81/1  211/82/1  174/83/1  172/84/1 
f  211/81/1  212/82/1  176/83/1  174/84/1 
f  212/81/1  213/82/1  178/83/1  176/84/1 
f  213/125/1  214/126/1  180/127/1  178/128/1 
f  215/77/1  216/78/1  183/79/1  182/80/1 
f  216/93/1  217/94/1  186/95/1  183/96/1 
f  217/125/1  218/126/1  188/127/1  186/128/1 
f  219/77/1  220/78/1  191/79/1  190/80/1 
f  220/89/1  221/90/1  194/91/1  191/92/1 
f  221/81/1  222/82/1  196/83/1  194/84/1 
f  222/81/1  223/82/1  198/83/1  196/84/1 
f  223/89/1  224/90/1  200/91/1  198/92/1 
f  225/109/1  226/110/1  203/111/1  202/112/1 
f  226/93/1  227/94/1  204/95/1  203/96/1 
f  227/109/1  228/110/1  205/111/1  204/112/1 
f  228/93/1  229/94/1  206/95/1  205/96/1 
f  229/93/1  230/94/1  207/95/1  206/96/1 
f  230/109/1  231/110/1  208/111/1  207/112/1 
f  231/109/1  232/110/1  209/111/1  208/112/1 
f  232/93/1  233/94/1  210/95/1  209/96/1 
f  233/93/1  234/94/1  211/95/1  210/96/1 
f  234/81/1  235/82/1  212/83/1  211/84/1 
f  235/89/1  236/90/1  213/91/1  212/92/1 
f  236/73/1  237/74/1  214/75/1  213/76/1 
f  238/77/1  239/78/1  216/79/1  215/80/1 
f  239/93/1  240/94/1  217/95/1  216/96/1 
f  240/73/1  241/74/1  218/75/1  217/76/1 
f  242/77/1  243/78/1  220/79/1  219/80/1 
f  243/109/1  244/110/1  221/111/1  220/112/1 
f  244/113/1  245/114/1  222/115/1  221/116/1 
f  245/121/1  246/122/1  223/123/1  222/124/1 
f  246/81/1  247/82/1  224/83/1  223/84/1 
g mesh_[04]_[03]
f  38/129/1  37/130/1  248/131/1  249/132/1 
f  27/133/1  29/134/1  30/19/1  28/135/1 
f  29/136/1  31/137/1  32/138/1  30/139/1 
f  31/133/1  33/134/1  34/19/1  32/135/1 
f  43/136/1  44/137/1  29/138/1  27/139/1 
f  44/133/1  45/134/1  31/19/1  29/135/1 
f  45/136/1  46/137/1  33/138/1  31/139/1 
f  250/133/1  251/134/1  44/19/1  43/135/1 
f  252/133/1  253/134/1  46/19/1  45/135/1 
f  254/136/1  255/137/1  251/138/1  250/139/1 
f  92/140/1  94/141/1  79/142/1  256/143/1 
f  103/144/1  121/145/1  257/146/1  104/147/1 
f  162/148/1  173/149/1  258/150/1  150/151/1 
g mesh_[05]_[03]
f  26/152/1  25/153/1  259/154/1  260/155/1 
f  25/156/1  28/157/1  261/158/1  259/159/1 
f  28/156/1  30/157/1  262/158/1  261/159/1 
f  30/156/1  32/157/1  263/158/1  262/159/1 
f  32/160/1  34/161/1  264/162/1  263/163/1 
f  38/152/1  37/153/1  248/154/1  249/155/1 
f  37/160/1  40/161/1  265/162/1  248/163/1 
f  50/152/1  49/153/1  266/154/1  267/155/1 
f  49/156/1  52/157/1  268/158/1  266/159/1 
f  52/160/1  54/161/1  269/162/1  268/163/1 
f  53/156/1  63/157/1  270/158/1  54/159/1 
f  63/160/1  65/161/1  271/162/1  270/163/1 
f  57/160/1  70/161/1  272/162/1  39/163/1 
f  86/152/1  85/153/1  273/154/1  78/155/1 
f  85/156/1  4/157/1  274/158/1  273/159/1 
f  8/156/1  88/157/1  275/158/1  276/159/1 
f  88/156/1  90/157/1  277/158/1  275/159/1 
f  90/156/1  92/157/1  256/158/1  277/159/1 
f  92/156/1  94/157/1  79/158/1  256/159/1 
f  94/156/1  96/157/1  80/158/1  79/159/1 
f  96/156/1  19/157/1  15/158/1  80/159/1 
f  19/156/1  20/157/1  16/158/1  15/159/1 
f  20/156/1  98/157/1  81/158/1  16/159/1 
f  98/156/1  100/157/1  82/158/1  81/159/1 
f  100/156/1  102/157/1  278/158/1  82/159/1 
f  102/160/1  104/161/1  279/162/1  278/163/1 
f  107/152/1  83/153/1  86/154/1  280/155/1 
f  103/156/1  121/157/1  257/158/1  104/159/1 
f  121/160/1  123/161/1  281/162/1  257/163/1 
f  126/152/1  105/153/1  107/154/1  282/155/1 
f  146/152/1  124/153/1  126/154/1  283/155/1 
f  157/152/1  144/153/1  146/154/1  284/155/1 
f  165/156/1  155/157/1  157/158/1  285/159/1 
f  162/156/1  173/157/1  258/158/1  150/159/1 
f  173/156/1  175/157/1  286/158/1  258/159/1 
f  175/156/1  177/157/1  287/158/1  286/159/1 
f  177/156/1  179/157/1  288/158/1  287/159/1 
f  179/160/1  181/161/1  289/162/1  288/163/1 
f  185/152/1  184/153/1  290/154/1  291/155/1 
f  184/156/1  187/157/1  292/158/1  290/159/1 
f  187/160/1  189/161/1  293/162/1  292/163/1 
f  193/152/1  192/153/1  151/154/1  294/155/1 
f  192/156/1  195/157/1  152/158/1  151/159/1 
f  195/156/1  197/157/1  153/158/1  152/159/1 
f  197/156/1  199/157/1  154/158/1  153/159/1 
f  199/156/1  201/157/1  295/158/1  154/159/1 
g mesh_[06]_[01]
f  4/164/1  3/165/1  296/166/1  274/167/1 
f  3/168/1  6/169/1  297/170/1  296/171/1 
f  6/172/1  8/173/1  276/174/1  297/175/1 
