# Wavefront OBJ file automatically generated by Tiled2Unity

# Vertices (Count = 425)
v 0 -48 0
v -48 -48 0
v -48 0 0
v 0 0 0
v -96 -48 0
v -96 0 0
v -144 -48 0
v -144 0 0
v -192 -48 0
v -192 0 0
v -240 -48 0
v -240 0 0
v -288 -48 0
v -288 0 0
v -336 -48 0
v -336 0 0
v -384 -48 0
v -384 0 0
v -432 -48 0
v -432 0 0
v -480 -48 0
v -480 0 0
v -528 -48 0
v -528 0 0
v -576 -48 0
v -576 0 0
v -624 -48 0
v -624 0 0
v -672 -48 0
v -672 0 0
v -720 -48 0
v -720 0 0
v -768 -48 0
v -768 0 0
v -816 -48 0
v -816 0 0
v -864 -48 0
v -864 0 0
v -912 -48 0
v -912 0 0
v -960 -48 0
v -960 0 0
v -1008 -48 0
v -1008 0 0
v -1056 -48 0
v -1056 0 0
v -1104 -48 0
v -1104 0 0
v -1152 -48 0
v -1152 0 0
v 0 -96 0
v -48 -96 0
v -96 -96 0
v -144 -96 0
v -192 -96 0
v -240 -96 0
v -288 -96 0
v -336 -96 0
v -384 -96 0
v -432 -96 0
v -480 -96 0
v -528 -96 0
v -576 -96 0
v -624 -96 0
v -672 -96 0
v -720 -96 0
v -768 -96 0
v -816 -96 0
v -864 -96 0
v -912 -96 0
v -960 -96 0
v -1008 -96 0
v -1056 -96 0
v -1104 -96 0
v -1152 -96 0
v 0 -144 0
v -48 -144 0
v -96 -144 0
v -144 -144 0
v -192 -144 0
v -240 -144 0
v -288 -144 0
v -336 -144 0
v -384 -144 0
v -432 -144 0
v -480 -144 0
v -528 -144 0
v -576 -144 0
v -624 -144 0
v -672 -144 0
v -720 -144 0
v -768 -144 0
v -816 -144 0
v -864 -144 0
v -912 -144 0
v -960 -144 0
v -1008 -144 0
v -1056 -144 0
v -1104 -144 0
v -1152 -144 0
v 0 -192 0
v -48 -192 0
v -96 -192 0
v -144 -192 0
v -192 -192 0
v -240 -192 0
v -288 -192 0
v -336 -192 0
v -384 -192 0
v -432 -192 0
v -480 -192 0
v -528 -192 0
v -576 -192 0
v -624 -192 0
v -672 -192 0
v -720 -192 0
v -768 -192 0
v -816 -192 0
v -864 -192 0
v -912 -192 0
v -960 -192 0
v -1008 -192 0
v -1056 -192 0
v -1104 -192 0
v -1152 -192 0
v 0 -240 0
v -48 -240 0
v -96 -240 0
v -144 -240 0
v -192 -240 0
v -240 -240 0
v -288 -240 0
v -336 -240 0
v -384 -240 0
v -432 -240 0
v -480 -240 0
v -528 -240 0
v -576 -240 0
v -624 -240 0
v -672 -240 0
v -720 -240 0
v -768 -240 0
v -816 -240 0
v -864 -240 0
v -912 -240 0
v -960 -240 0
v -1008 -240 0
v -1056 -240 0
v -1104 -240 0
v -1152 -240 0
v 0 -288 0
v -48 -288 0
v -96 -288 0
v -144 -288 0
v -192 -288 0
v -240 -288 0
v -288 -288 0
v -336 -288 0
v -384 -288 0
v -432 -288 0
v -480 -288 0
v -528 -288 0
v -576 -288 0
v -624 -288 0
v -672 -288 0
v -720 -288 0
v -768 -288 0
v -816 -288 0
v -864 -288 0
v -912 -288 0
v -960 -288 0
v -1008 -288 0
v -1056 -288 0
v -1104 -288 0
v -1152 -288 0
v 0 -336 0
v -48 -336 0
v -96 -336 0
v -144 -336 0
v -192 -336 0
v -240 -336 0
v -288 -336 0
v -336 -336 0
v -384 -336 0
v -432 -336 0
v -480 -336 0
v -528 -336 0
v -576 -336 0
v -624 -336 0
v -672 -336 0
v -720 -336 0
v -768 -336 0
v -816 -336 0
v -864 -336 0
v -912 -336 0
v -960 -336 0
v -1008 -336 0
v -1056 -336 0
v -1104 -336 0
v -1152 -336 0
v 0 -384 0
v -48 -384 0
v -96 -384 0
v -144 -384 0
v -192 -384 0
v -240 -384 0
v -288 -384 0
v -336 -384 0
v -384 -384 0
v -432 -384 0
v -480 -384 0
v -528 -384 0
v -576 -384 0
v -624 -384 0
v -672 -384 0
v -720 -384 0
v -768 -384 0
v -816 -384 0
v -864 -384 0
v -912 -384 0
v -960 -384 0
v -1008 -384 0
v -1056 -384 0
v -1104 -384 0
v -1152 -384 0
v 0 -432 0
v -48 -432 0
v -96 -432 0
v -144 -432 0
v -192 -432 0
v -240 -432 0
v -288 -432 0
v -336 -432 0
v -384 -432 0
v -432 -432 0
v -480 -432 0
v -528 -432 0
v -576 -432 0
v -624 -432 0
v -672 -432 0
v -720 -432 0
v -768 -432 0
v -816 -432 0
v -864 -432 0
v -912 -432 0
v -960 -432 0
v -1008 -432 0
v -1056 -432 0
v -1104 -432 0
v -1152 -432 0
v 0 -480 0
v -48 -480 0
v -96 -480 0
v -144 -480 0
v -192 -480 0
v -240 -480 0
v -288 -480 0
v -336 -480 0
v -384 -480 0
v -432 -480 0
v -480 -480 0
v -528 -480 0
v -576 -480 0
v -624 -480 0
v -672 -480 0
v -720 -480 0
v -768 -480 0
v -816 -480 0
v -864 -480 0
v -912 -480 0
v -960 -480 0
v -1008 -480 0
v -1056 -480 0
v -1104 -480 0
v -1152 -480 0
v 0 -528 0
v -48 -528 0
v -96 -528 0
v -144 -528 0
v -192 -528 0
v -240 -528 0
v -288 -528 0
v -336 -528 0
v -384 -528 0
v -432 -528 0
v -480 -528 0
v -528 -528 0
v -576 -528 0
v -624 -528 0
v -672 -528 0
v -720 -528 0
v -768 -528 0
v -816 -528 0
v -864 -528 0
v -912 -528 0
v -960 -528 0
v -1008 -528 0
v -1056 -528 0
v -1104 -528 0
v -1152 -528 0
v 0 -576 0
v -48 -576 0
v -96 -576 0
v -144 -576 0
v -192 -576 0
v -240 -576 0
v -288 -576 0
v -336 -576 0
v -384 -576 0
v -432 -576 0
v -480 -576 0
v -528 -576 0
v -576 -576 0
v -624 -576 0
v -672 -576 0
v -720 -576 0
v -768 -576 0
v -816 -576 0
v -864 -576 0
v -912 -576 0
v -960 -576 0
v -1008 -576 0
v -1056 -576 0
v -1104 -576 0
v -1152 -576 0
v 0 -624 0
v -48 -624 0
v -96 -624 0
v -144 -624 0
v -192 -624 0
v -240 -624 0
v -288 -624 0
v -336 -624 0
v -384 -624 0
v -432 -624 0
v -480 -624 0
v -528 -624 0
v -576 -624 0
v -624 -624 0
v -672 -624 0
v -720 -624 0
v -768 -624 0
v -816 -624 0
v -864 -624 0
v -912 -624 0
v -960 -624 0
v -1008 -624 0
v -1056 -624 0
v -1104 -624 0
v -1152 -624 0
v 0 -672 0
v -48 -672 0
v -96 -672 0
v -144 -672 0
v -192 -672 0
v -240 -672 0
v -288 -672 0
v -336 -672 0
v -384 -672 0
v -432 -672 0
v -480 -672 0
v -528 -672 0
v -576 -672 0
v -624 -672 0
v -672 -672 0
v -720 -672 0
v -768 -672 0
v -816 -672 0
v -864 -672 0
v -912 -672 0
v -960 -672 0
v -1008 -672 0
v -1056 -672 0
v -1104 -672 0
v -1152 -672 0
v 0 -720 0
v -48 -720 0
v -96 -720 0
v -144 -720 0
v -192 -720 0
v -240 -720 0
v -288 -720 0
v -336 -720 0
v -384 -720 0
v -432 -720 0
v -480 -720 0
v -528 -720 0
v -576 -720 0
v -624 -720 0
v -672 -720 0
v -720 -720 0
v -768 -720 0
v -816 -720 0
v -864 -720 0
v -912 -720 0
v -960 -720 0
v -1008 -720 0
v -1056 -720 0
v -1104 -720 0
v -1152 -720 0
v 0 -768 0
v -48 -768 0
v -96 -768 0
v -144 -768 0
v -192 -768 0
v -240 -768 0
v -288 -768 0
v -336 -768 0
v -384 -768 0
v -432 -768 0
v -480 -768 0
v -528 -768 0
v -576 -768 0
v -624 -768 0
v -672 -768 0
v -720 -768 0
v -768 -768 0
v -816 -768 0
v -864 -768 0
v -912 -768 0
v -960 -768 0
v -1008 -768 0
v -1056 -768 0
v -1104 -768 0
v -1152 -768 0

# Texture Coorindates (Count = 16)
vt 0.1667887 0.6667888
vt 0.2498779 0.6667888
vt 0.2498779 0.7498779
vt 0.1667887 0.7498779
vt 0.2501221 0.7501221
vt 0.3332113 0.7501221
vt 0.3332113 0.8332112
vt 0.2501221 0.8332112
vt 0.1667887 0.7501221
vt 0.2498779 0.7501221
vt 0.2498779 0.8332112
vt 0.1667887 0.8332112
vt 0.2501221 0.6667888
vt 0.3332113 0.6667888
vt 0.3332113 0.7498779
vt 0.2501221 0.7498779

# Normal
vn 0 0 -1

# Groups (Count = 1)
g mesh_[00]_[01]
f  1/1/1  2/2/1  3/3/1  4/4/1 
f  2/5/1  5/6/1  6/7/1  3/8/1 
f  5/5/1  7/6/1  8/7/1  6/8/1 
f  7/5/1  9/6/1  10/7/1  8/8/1 
f  9/1/1  11/2/1  12/3/1  10/4/1 
f  11/9/1  13/10/1  14/11/1  12/12/1 
f  13/13/1  15/14/1  16/15/1  14/16/1 
f  15/1/1  17/2/1  18/3/1  16/4/1 
f  17/5/1  19/6/1  20/7/1  18/8/1 
f  19/5/1  21/6/1  22/7/1  20/8/1 
f  21/1/1  23/2/1  24/3/1  22/4/1 
f  23/5/1  25/6/1  26/7/1  24/8/1 
f  25/13/1  27/14/1  28/15/1  26/16/1 
f  27/9/1  29/10/1  30/11/1  28/12/1 
f  29/9/1  31/10/1  32/11/1  30/12/1 
f  31/13/1  33/14/1  34/15/1  32/16/1 
f  33/9/1  35/10/1  36/11/1  34/12/1 
f  35/9/1  37/10/1  38/11/1  36/12/1 
f  37/1/1  39/2/1  40/3/1  38/4/1 
f  39/1/1  41/2/1  42/3/1  40/4/1 
f  41/1/1  43/2/1  44/3/1  42/4/1 
f  43/1/1  45/2/1  46/3/1  44/4/1 
f  45/13/1  47/14/1  48/15/1  46/16/1 
f  47/5/1  49/6/1  50/7/1  48/8/1 
f  51/13/1  52/14/1  2/15/1  1/16/1 
f  52/1/1  53/2/1  5/3/1  2/4/1 
f  53/1/1  54/2/1  7/3/1  5/4/1 
f  54/5/1  55/6/1  9/7/1  7/8/1 
f  55/9/1  56/10/1  11/11/1  9/12/1 
f  56/5/1  57/6/1  13/7/1  11/8/1 
f  57/9/1  58/10/1  15/11/1  13/12/1 
f  58/5/1  59/6/1  17/7/1  15/8/1 
f  59/13/1  60/14/1  19/15/1  17/16/1 
f  60/9/1  61/10/1  21/11/1  19/12/1 
f  61/1/1  62/2/1  23/3/1  21/4/1 
f  62/1/1  63/2/1  25/3/1  23/4/1 
f  63/13/1  64/14/1  27/15/1  25/16/1 
f  64/13/1  65/14/1  29/15/1  27/16/1 
f  65/13/1  66/14/1  31/15/1  29/16/1 
f  66/1/1  67/2/1  33/3/1  31/4/1 
f  67/1/1  68/2/1  35/3/1  33/4/1 
f  68/9/1  69/10/1  37/11/1  35/12/1 
f  69/9/1  70/10/1  39/11/1  37/12/1 
f  70/9/1  71/10/1  41/11/1  39/12/1 
f  71/13/1  72/14/1  43/15/1  41/16/1 
f  72/9/1  73/10/1  45/11/1  43/12/1 
f  73/9/1  74/10/1  47/11/1  45/12/1 
f  74/13/1  75/14/1  49/15/1  47/16/1 
f  76/13/1  77/14/1  52/15/1  51/16/1 
f  77/13/1  78/14/1  53/15/1  52/16/1 
f  78/13/1  79/14/1  54/15/1  53/16/1 
f  79/13/1  80/14/1  55/15/1  54/16/1 
f  80/13/1  81/14/1  56/15/1  55/16/1 
f  81/9/1  82/10/1  57/11/1  56/12/1 
f  82/9/1  83/10/1  58/11/1  57/12/1 
f  83/5/1  84/6/1  59/7/1  58/8/1 
f  84/9/1  85/10/1  60/11/1  59/12/1 
f  85/9/1  86/10/1  61/11/1  60/12/1 
f  86/1/1  87/2/1  62/3/1  61/4/1 
f  87/13/1  88/14/1  63/15/1  62/16/1 
f  88/5/1  89/6/1  64/7/1  63/8/1 
f  89/5/1  90/6/1  65/7/1  64/8/1 
f  90/1/1  91/2/1  66/3/1  65/4/1 
f  91/9/1  92/10/1  67/11/1  66/12/1 
f  92/9/1  93/10/1  68/11/1  67/12/1 
f  93/9/1  94/10/1  69/11/1  68/12/1 
f  94/5/1  95/6/1  70/7/1  69/8/1 
f  95/5/1  96/6/1  71/7/1  70/8/1 
f  96/5/1  97/6/1  72/7/1  71/8/1 
f  97/5/1  98/6/1  73/7/1  72/8/1 
f  98/5/1  99/6/1  74/7/1  73/8/1 
f  99/1/1  100/2/1  75/3/1  74/4/1 
f  101/9/1  102/10/1  77/11/1  76/12/1 
f  102/9/1  103/10/1  78/11/1  77/12/1 
f  103/1/1  104/2/1  79/3/1  78/4/1 
f  104/5/1  105/6/1  80/7/1  79/8/1 
f  105/1/1  106/2/1  81/3/1  80/4/1 
f  106/1/1  107/2/1  82/3/1  81/4/1 
f  107/9/1  108/10/1  83/11/1  82/12/1 
f  108/9/1  109/10/1  84/11/1  83/12/1 
f  109/9/1  110/10/1  85/11/1  84/12/1 
f  110/5/1  111/6/1  86/7/1  85/8/1 
f  111/1/1  112/2/1  87/3/1  86/4/1 
f  112/5/1  113/6/1  88/7/1  87/8/1 
f  113/13/1  114/14/1  89/15/1  88/16/1 
f  114/5/1  115/6/1  90/7/1  89/8/1 
f  115/1/1  116/2/1  91/3/1  90/4/1 
f  116/1/1  117/2/1  92/3/1  91/4/1 
f  117/1/1  118/2/1  93/3/1  92/4/1 
f  118/13/1  119/14/1  94/15/1  93/16/1 
f  119/5/1  120/6/1  95/7/1  94/8/1 
f  120/1/1  121/2/1  96/3/1  95/4/1 
f  121/9/1  122/10/1  97/11/1  96/12/1 
f  122/9/1  123/10/1  98/11/1  97/12/1 
f  123/13/1  124/14/1  99/15/1  98/16/1 
f  124/9/1  125/10/1  100/11/1  99/12/1 
f  126/1/1  127/2/1  102/3/1  101/4/1 
f  127/5/1  128/6/1  103/7/1  102/8/1 
f  128/13/1  129/14/1  104/15/1  103/16/1 
f  129/5/1  130/6/1  105/7/1  104/8/1 
f  130/1/1  131/2/1  106/3/1  105/4/1 
f  131/9/1  132/10/1  107/11/1  106/12/1 
f  132/5/1  133/6/1  108/7/1  107/8/1 
f  133/1/1  134/2/1  109/3/1  108/4/1 
f  134/9/1  135/10/1  110/11/1  109/12/1 
f  135/1/1  136/2/1  111/3/1  110/4/1 
f  136/5/1  137/6/1  112/7/1  111/8/1 
f  137/13/1  138/14/1  113/15/1  112/16/1 
f  138/1/1  139/2/1  114/3/1  113/4/1 
f  139/1/1  140/2/1  115/3/1  114/4/1 
f  140/9/1  141/10/1  116/11/1  115/12/1 
f  141/13/1  142/14/1  117/15/1  116/16/1 
f  142/5/1  143/6/1  118/7/1  117/8/1 
f  143/5/1  144/6/1  119/7/1  118/8/1 
f  144/9/1  145/10/1  120/11/1  119/12/1 
f  145/1/1  146/2/1  121/3/1  120/4/1 
f  146/9/1  147/10/1  122/11/1  121/12/1 
f  147/13/1  148/14/1  123/15/1  122/16/1 
f  148/9/1  149/10/1  124/11/1  123/12/1 
f  149/1/1  150/2/1  125/3/1  124/4/1 
f  151/13/1  152/14/1  127/15/1  126/16/1 
f  152/13/1  153/14/1  128/15/1  127/16/1 
f  153/9/1  154/10/1  129/11/1  128/12/1 
f  154/1/1  155/2/1  130/3/1  129/4/1 
f  155/9/1  156/10/1  131/11/1  130/12/1 
f  156/1/1  157/2/1  132/3/1  131/4/1 
f  157/13/1  158/14/1  133/15/1  132/16/1 
f  158/5/1  159/6/1  134/7/1  133/8/1 
f  159/1/1  160/2/1  135/3/1  134/4/1 
f  160/9/1  161/10/1  136/11/1  135/12/1 
f  161/13/1  162/14/1  137/15/1  136/16/1 
f  162/9/1  163/10/1  138/11/1  137/12/1 
f  163/1/1  164/2/1  139/3/1  138/4/1 
f  164/1/1  165/2/1  140/3/1  139/4/1 
f  165/9/1  166/10/1  141/11/1  140/12/1 
f  166/1/1  167/2/1  142/3/1  141/4/1 
f  167/5/1  168/6/1  143/7/1  142/8/1 
f  168/1/1  169/2/1  144/3/1  143/4/1 
f  169/1/1  170/2/1  145/3/1  144/4/1 
f  170/9/1  171/10/1  146/11/1  145/12/1 
f  171/5/1  172/6/1  147/7/1  146/8/1 
f  172/13/1  173/14/1  148/15/1  147/16/1 
f  173/9/1  174/10/1  149/11/1  148/12/1 
f  174/5/1  175/6/1  150/7/1  149/8/1 
f  176/5/1  177/6/1  152/7/1  151/8/1 
f  177/5/1  178/6/1  153/7/1  152/8/1 
f  178/9/1  179/10/1  154/11/1  153/12/1 
f  179/5/1  180/6/1  155/7/1  154/8/1 
f  180/1/1  181/2/1  156/3/1  155/4/1 
f  181/13/1  182/14/1  157/15/1  156/16/1 
f  182/1/1  183/2/1  158/3/1  157/4/1 
f  183/13/1  184/14/1  159/15/1  158/16/1 
f  184/1/1  185/2/1  160/3/1  159/4/1 
f  185/9/1  186/10/1  161/11/1  160/12/1 
f  186/1/1  187/2/1  162/3/1  161/4/1 
f  187/1/1  188/2/1  163/3/1  162/4/1 
f  188/1/1  189/2/1  164/3/1  163/4/1 
f  189/5/1  190/6/1  165/7/1  164/8/1 
f  190/13/1  191/14/1  166/15/1  165/16/1 
f  191/1/1  192/2/1  167/3/1  166/4/1 
f  192/1/1  193/2/1  168/3/1  167/4/1 
f  193/5/1  194/6/1  169/7/1  168/8/1 
f  194/5/1  195/6/1  170/7/1  169/8/1 
f  195/13/1  196/14/1  171/15/1  170/16/1 
f  196/13/1  197/14/1  172/15/1  171/16/1 
f  197/5/1  198/6/1  173/7/1  172/8/1 
f  198/13/1  199/14/1  174/15/1  173/16/1 
f  199/9/1  200/10/1  175/11/1  174/12/1 
f  201/5/1  202/6/1  177/7/1  176/8/1 
f  202/1/1  203/2/1  178/3/1  177/4/1 
f  203/1/1  204/2/1  179/3/1  178/4/1 
f  204/1/1  205/2/1  180/3/1  179/4/1 
f  205/1/1  206/2/1  181/3/1  180/4/1 
f  206/13/1  207/14/1  182/15/1  181/16/1 
f  207/13/1  208/14/1  183/15/1  182/16/1 
f  208/5/1  209/6/1  184/7/1  183/8/1 
f  209/9/1  210/10/1  185/11/1  184/12/1 
f  210/13/1  211/14/1  186/15/1  185/16/1 
f  211/5/1  212/6/1  187/7/1  186/8/1 
f  212/13/1  213/14/1  188/15/1  187/16/1 
f  213/9/1  214/10/1  189/11/1  188/12/1 
f  214/9/1  215/10/1  190/11/1  189/12/1 
f  215/5/1  216/6/1  191/7/1  190/8/1 
f  216/13/1  217/14/1  192/15/1  191/16/1 
f  217/5/1  218/6/1  193/7/1  192/8/1 
f  218/1/1  219/2/1  194/3/1  193/4/1 
f  219/1/1  220/2/1  195/3/1  194/4/1 
f  220/5/1  221/6/1  196/7/1  195/8/1 
f  221/1/1  222/2/1  197/3/1  196/4/1 
f  222/5/1  223/6/1  198/7/1  197/8/1 
f  223/9/1  224/10/1  199/11/1  198/12/1 
f  224/1/1  225/2/1  200/3/1  199/4/1 
f  226/13/1  227/14/1  202/15/1  201/16/1 
f  227/1/1  228/2/1  203/3/1  202/4/1 
f  228/1/1  229/2/1  204/3/1  203/4/1 
f  229/5/1  230/6/1  205/7/1  204/8/1 
f  230/9/1  231/10/1  206/11/1  205/12/1 
f  231/5/1  232/6/1  207/7/1  206/8/1 
f  232/5/1  233/6/1  208/7/1  207/8/1 
f  233/13/1  234/14/1  209/15/1  208/16/1 
f  234/9/1  235/10/1  210/11/1  209/12/1 
f  235/1/1  236/2/1  211/3/1  210/4/1 
f  236/13/1  237/14/1  212/15/1  211/16/1 
f  237/13/1  238/14/1  213/15/1  212/16/1 
f  238/13/1  239/14/1  214/15/1  213/16/1 
f  239/9/1  240/10/1  215/11/1  214/12/1 
f  240/5/1  241/6/1  216/7/1  215/8/1 
f  241/1/1  242/2/1  217/3/1  216/4/1 
f  242/5/1  243/6/1  218/7/1  217/8/1 
f  243/1/1  244/2/1  219/3/1  218/4/1 
f  244/13/1  245/14/1  220/15/1  219/16/1 
f  245/1/1  246/2/1  221/3/1  220/4/1 
f  246/13/1  247/14/1  222/15/1  221/16/1 
f  247/5/1  248/6/1  223/7/1  222/8/1 
f  248/9/1  249/10/1  224/11/1  223/12/1 
f  249/5/1  250/6/1  225/7/1  224/8/1 
f  251/5/1  252/6/1  227/7/1  226/8/1 
f  252/9/1  253/10/1  228/11/1  227/12/1 
f  253/5/1  254/6/1  229/7/1  228/8/1 
f  254/9/1  255/10/1  230/11/1  229/12/1 
f  255/1/1  256/2/1  231/3/1  230/4/1 
f  256/5/1  257/6/1  232/7/1  231/8/1 
f  257/1/1  258/2/1  233/3/1  232/4/1 
f  258/5/1  259/6/1  234/7/1  233/8/1 
f  259/13/1  260/14/1  235/15/1  234/16/1 
f  260/9/1  261/10/1  236/11/1  235/12/1 
f  261/13/1  262/14/1  237/15/1  236/16/1 
f  262/9/1  263/10/1  238/11/1  237/12/1 
f  263/1/1  264/2/1  239/3/1  238/4/1 
f  264/5/1  265/6/1  240/7/1  239/8/1 
f  265/13/1  266/14/1  241/15/1  240/16/1 
f  266/1/1  267/2/1  242/3/1  241/4/1 
f  267/1/1  268/2/1  243/3/1  242/4/1 
f  268/1/1  269/2/1  244/3/1  243/4/1 
f  269/9/1  270/10/1  245/11/1  244/12/1 
f  270/5/1  271/6/1  246/7/1  245/8/1 
f  271/5/1  272/6/1  247/7/1  246/8/1 
f  272/1/1  273/2/1  248/3/1  247/4/1 
f  273/13/1  274/14/1  249/15/1  248/16/1 
f  274/1/1  275/2/1  250/3/1  249/4/1 
f  276/1/1  277/2/1  252/3/1  251/4/1 
f  277/5/1  278/6/1  253/7/1  252/8/1 
f  278/5/1  279/6/1  254/7/1  253/8/1 
f  279/13/1  280/14/1  255/15/1  254/16/1 
f  280/9/1  281/10/1  256/11/1  255/12/1 
f  281/1/1  282/2/1  257/3/1  256/4/1 
f  282/13/1  283/14/1  258/15/1  257/16/1 
f  283/1/1  284/2/1  259/3/1  258/4/1 
f  284/9/1  285/10/1  260/11/1  259/12/1 
f  285/5/1  286/6/1  261/7/1  260/8/1 
f  286/9/1  287/10/1  262/11/1  261/12/1 
f  287/1/1  288/2/1  263/3/1  262/4/1 
f  288/1/1  289/2/1  264/3/1  263/4/1 
f  289/13/1  290/14/1  265/15/1  264/16/1 
f  290/9/1  291/10/1  266/11/1  265/12/1 
f  291/13/1  292/14/1  267/15/1  266/16/1 
f  292/1/1  293/2/1  268/3/1  267/4/1 
f  293/1/1  294/2/1  269/3/1  268/4/1 
f  294/5/1  295/6/1  270/7/1  269/8/1 
f  295/9/1  296/10/1  271/11/1  270/12/1 
f  296/5/1  297/6/1  272/7/1  271/8/1 
f  297/5/1  298/6/1  273/7/1  272/8/1 
f  298/13/1  299/14/1  274/15/1  273/16/1 
f  299/13/1  300/14/1  275/15/1  274/16/1 
f  301/5/1  302/6/1  277/7/1  276/8/1 
f  302/13/1  303/14/1  278/15/1  277/16/1 
f  303/1/1  304/2/1  279/3/1  278/4/1 
f  304/1/1  305/2/1  280/3/1  279/4/1 
f  305/9/1  306/10/1  281/11/1  280/12/1 
f  306/5/1  307/6/1  282/7/1  281/8/1 
f  307/9/1  308/10/1  283/11/1  282/12/1 
f  308/13/1  309/14/1  284/15/1  283/16/1 
f  309/13/1  310/14/1  285/15/1  284/16/1 
f  310/1/1  311/2/1  286/3/1  285/4/1 
f  311/5/1  312/6/1  287/7/1  286/8/1 
f  312/5/1  313/6/1  288/7/1  287/8/1 
f  313/13/1  314/14/1  289/15/1  288/16/1 
f  314/1/1  315/2/1  290/3/1  289/4/1 
f  315/9/1  316/10/1  291/11/1  290/12/1 
f  316/5/1  317/6/1  292/7/1  291/8/1 
f  317/9/1  318/10/1  293/11/1  292/12/1 
f  318/1/1  319/2/1  294/3/1  293/4/1 
f  319/5/1  320/6/1  295/7/1  294/8/1 
f  320/5/1  321/6/1  296/7/1  295/8/1 
f  321/13/1  322/14/1  297/15/1  296/16/1 
f  322/13/1  323/14/1  298/15/1  297/16/1 
f  323/1/1  324/2/1  299/3/1  298/4/1 
f  324/5/1  325/6/1  300/7/1  299/8/1 
f  326/1/1  327/2/1  302/3/1  301/4/1 
f  327/1/1  328/2/1  303/3/1  302/4/1 
f  328/9/1  329/10/1  304/11/1  303/12/1 
f  329/9/1  330/10/1  305/11/1  304/12/1 
f  330/9/1  331/10/1  306/11/1  305/12/1 
f  331/9/1  332/10/1  307/11/1  306/12/1 
f  332/5/1  333/6/1  308/7/1  307/8/1 
f  333/13/1  334/14/1  309/15/1  308/16/1 
f  334/1/1  335/2/1  310/3/1  309/4/1 
f  335/1/1  336/2/1  311/3/1  310/4/1 
f  336/1/1  337/2/1  312/3/1  311/4/1 
f  337/5/1  338/6/1  313/7/1  312/8/1 
f  338/9/1  339/10/1  314/11/1  313/12/1 
f  339/13/1  340/14/1  315/15/1  314/16/1 
f  340/13/1  341/14/1  316/15/1  315/16/1 
f  341/5/1  342/6/1  317/7/1  316/8/1 
f  342/9/1  343/10/1  318/11/1  317/12/1 
f  343/5/1  344/6/1  319/7/1  318/8/1 
f  344/9/1  345/10/1  320/11/1  319/12/1 
f  345/1/1  346/2/1  321/3/1  320/4/1 
f  346/9/1  347/10/1  322/11/1  321/12/1 
f  347/13/1  348/14/1  323/15/1  322/16/1 
f  348/9/1  349/10/1  324/11/1  323/12/1 
f  349/5/1  350/6/1  325/7/1  324/8/1 
f  351/9/1  352/10/1  327/11/1  326/12/1 
f  352/1/1  353/2/1  328/3/1  327/4/1 
f  353/9/1  354/10/1  329/11/1  328/12/1 
f  354/5/1  355/6/1  330/7/1  329/8/1 
f  355/1/1  356/2/1  331/3/1  330/4/1 
f  356/9/1  357/10/1  332/11/1  331/12/1 
f  357/5/1  358/6/1  333/7/1  332/8/1 
f  358/13/1  359/14/1  334/15/1  333/16/1 
f  359/13/1  360/14/1  335/15/1  334/16/1 
f  360/1/1  361/2/1  336/3/1  335/4/1 
f  361/1/1  362/2/1  337/3/1  336/4/1 
f  362/9/1  363/10/1  338/11/1  337/12/1 
f  363/1/1  364/2/1  339/3/1  338/4/1 
f  364/1/1  365/2/1  340/3/1  339/4/1 
f  365/1/1  366/2/1  341/3/1  340/4/1 
f  366/1/1  367/2/1  342/3/1  341/4/1 
f  367/9/1  368/10/1  343/11/1  342/12/1 
f  368/1/1  369/2/1  344/3/1  343/4/1 
f  369/9/1  370/10/1  345/11/1  344/12/1 
f  370/5/1  371/6/1  346/7/1  345/8/1 
f  371/1/1  372/2/1  347/3/1  346/4/1 
f  372/13/1  373/14/1  348/15/1  347/16/1 
f  373/9/1  374/10/1  349/11/1  348/12/1 
f  374/9/1  375/10/1  350/11/1  349/12/1 
f  376/13/1  377/14/1  352/15/1  351/16/1 
f  377/9/1  378/10/1  353/11/1  352/12/1 
f  378/1/1  379/2/1  354/3/1  353/4/1 
f  379/1/1  380/2/1  355/3/1  354/4/1 
f  380/1/1  381/2/1  356/3/1  355/4/1 
f  381/1/1  382/2/1  357/3/1  356/4/1 
f  382/9/1  383/10/1  358/11/1  357/12/1 
f  383/9/1  384/10/1  359/11/1  358/12/1 
f  384/9/1  385/10/1  360/11/1  359/12/1 
f  385/1/1  386/2/1  361/3/1  360/4/1 
f  386/1/1  387/2/1  362/3/1  361/4/1 
f  387/5/1  388/6/1  363/7/1  362/8/1 
f  388/9/1  389/10/1  364/11/1  363/12/1 
f  389/1/1  390/2/1  365/3/1  364/4/1 
f  390/13/1  391/14/1  366/15/1  365/16/1 
f  391/1/1  392/2/1  367/3/1  366/4/1 
f  392/9/1  393/10/1  368/11/1  367/12/1 
f  393/1/1  394/2/1  369/3/1  368/4/1 
f  394/1/1  395/2/1  370/3/1  369/4/1 
f  395/5/1  396/6/1  371/7/1  370/8/1 
f  396/13/1  397/14/1  372/15/1  371/16/1 
f  397/13/1  398/14/1  373/15/1  372/16/1 
f  398/13/1  399/14/1  374/15/1  373/16/1 
f  399/5/1  400/6/1  375/7/1  374/8/1 
f  401/13/1  402/14/1  377/15/1  376/16/1 
f  402/1/1  403/2/1  378/3/1  377/4/1 
f  403/13/1  404/14/1  379/15/1  378/16/1 
f  404/5/1  405/6/1  380/7/1  379/8/1 
f  405/1/1  406/2/1  381/3/1  380/4/1 
f  406/5/1  407/6/1  382/7/1  381/8/1 
f  407/13/1  408/14/1  383/15/1  382/16/1 
f  408/9/1  409/10/1  384/11/1  383/12/1 
f  409/9/1  410/10/1  385/11/1  384/12/1 
f  410/5/1  411/6/1  386/7/1  385/8/1 
f  411/13/1  412/14/1  387/15/1  386/16/1 
f  412/9/1  413/10/1  388/11/1  387/12/1 
f  413/5/1  414/6/1  389/7/1  388/8/1 
f  414/9/1  415/10/1  390/11/1  389/12/1 
f  415/5/1  416/6/1  391/7/1  390/8/1 
f  416/13/1  417/14/1  392/15/1  391/16/1 
f  417/9/1  418/10/1  393/11/1  392/12/1 
f  418/1/1  419/2/1  394/3/1  393/4/1 
f  419/13/1  420/14/1  395/15/1  394/16/1 
f  420/9/1  421/10/1  396/11/1  395/12/1 
f  421/9/1  422/10/1  397/11/1  396/12/1 
f  422/9/1  423/10/1  398/11/1  397/12/1 
f  423/1/1  424/2/1  399/3/1  398/4/1 
f  424/9/1  425/10/1  400/11/1  399/12/1 
